<svg width="1920" height="1084" viewBox="0 0 1920 1084" fill="none" xmlns="http://www.w3.org/2000/svg">
<g opacity="0.1">
<path opacity="0.2" d="M1.12433 7.99023H-1.53906V1076.01H1.12433V7.99023Z" fill="white"/>
<path opacity="0.2" d="M54.5247 7.99018H51.8613V1076.01H54.5247V7.99018Z" fill="white"/>
<path opacity="0.2" d="M107.926 7.99023H105.263V1076.01H107.926V7.99023Z" fill="white"/>
<path opacity="0.5" d="M161.326 7.99018H158.663V1076.01H161.326V7.99018Z" fill="white"/>
<path opacity="0.2" d="M214.727 7.99023H212.063V1076.01H214.727V7.99023Z" fill="white"/>
<path opacity="0.2" d="M268.129 7.99018H265.466V1076.01H268.129V7.99018Z" fill="white"/>
<path opacity="0.2" d="M321.53 7.99018H318.866V1076.01H321.53V7.99018Z" fill="white"/>
<path opacity="0.2" d="M374.931 7.99023H372.268V1076.01H374.931V7.99023Z" fill="white"/>
<path opacity="0.5" d="M428.331 7.99023H425.668V1076.01H428.331V7.99023Z" fill="white"/>
<path opacity="0.2" d="M481.732 7.99018H479.068V1076.01H481.732V7.99018Z" fill="white"/>
<path opacity="0.2" d="M535.134 7.99018H532.471V1076.01H535.134V7.99018Z" fill="white"/>
<path opacity="0.2" d="M588.534 7.99018H585.871V1076.01H588.534V7.99018Z" fill="white"/>
<path opacity="0.2" d="M641.936 7.99018H639.272V1076.01H641.936V7.99018Z" fill="white"/>
<path opacity="0.5" d="M695.336 7.99023H692.673V1076.01H695.336V7.99023Z" fill="white"/>
<path opacity="0.2" d="M748.737 7.99018H746.073V1076.01H748.737V7.99018Z" fill="white"/>
<path opacity="0.2" d="M802.139 7.99018H799.476V1076.01H802.139V7.99018Z" fill="white"/>
<path opacity="0.2" d="M855.539 7.99018H852.876V1076.01H855.539V7.99018Z" fill="white"/>
<path opacity="0.2" d="M908.941 7.99018H906.277V1076.01H908.941V7.99018Z" fill="white"/>
<path opacity="0.5" d="M961.01 9.32183H958.347V1074.68H961.01V9.32183Z" fill="white"/>
<path opacity="0.5" d="M959.679 7.99023H-105.678V10.6536H959.679V7.99023Z" fill="white"/>
<path opacity="0.2" d="M961.01 60.0596H-107.01V62.723H961.01V60.0596Z" fill="white"/>
<path opacity="0.2" d="M961.01 113.461H-107.01V116.124H961.01V113.461Z" fill="white"/>
<path opacity="0.2" d="M961.01 166.861H-107.01V169.525H961.01V166.861Z" fill="white"/>
<path opacity="0.2" d="M961.01 220.262H-107.01V222.926H961.01V220.262Z" fill="white"/>
<path opacity="0.5" d="M961.01 273.663H-107.01V276.327H961.01V273.663Z" fill="white"/>
<path opacity="0.2" d="M961.01 327.065H-107.01V329.728H961.01V327.065Z" fill="white"/>
<path opacity="0.2" d="M961.01 380.466H-107.01V383.129H961.01V380.466Z" fill="white"/>
<path opacity="0.2" d="M961.01 433.866H-107.01V436.529H961.01V433.866Z" fill="white"/>
<path opacity="0.2" d="M961.01 487.267H-107.01V489.931H961.01V487.267Z" fill="white"/>
<path opacity="0.5" d="M961.01 540.668H-107.01V543.332H961.01V540.668Z" fill="white"/>
<path opacity="0.2" d="M961.01 594.069H-107.01V596.733H961.01V594.069Z" fill="white"/>
<path opacity="0.2" d="M961.01 647.471H-107.01V650.134H961.01V647.471Z" fill="white"/>
<path opacity="0.2" d="M961.01 700.871H-107.01V703.534H961.01V700.871Z" fill="white"/>
<path opacity="0.2" d="M961.01 754.272H-107.01V756.935H961.01V754.272Z" fill="white"/>
<path opacity="0.5" d="M961.01 807.673H-107.01V810.337H961.01V807.673Z" fill="white"/>
<path opacity="0.2" d="M961.01 861.074H-107.01V863.738H961.01V861.074Z" fill="white"/>
<path opacity="0.2" d="M961.01 914.475H-107.01V917.139H961.01V914.475Z" fill="white"/>
<path opacity="0.2" d="M961.01 967.876H-107.01V970.539H961.01V967.876Z" fill="white"/>
<path opacity="0.2" d="M961.01 1021.28H-107.01V1023.94H961.01V1021.28Z" fill="white"/>
<path opacity="0.5" d="M959.679 1073.35H-105.678V1076.01H959.679V1073.35Z" fill="white"/>
<path d="M961.01 0H958.347V18.6437H961.01V0Z" fill="white"/>
<path d="M969 7.99018H950.356V10.6536H969V7.99018Z" fill="white"/>
<path d="M961.01 266.339H958.347V284.983H961.01V266.339Z" fill="white"/>
<path d="M969 274.329H950.356V276.993H969V274.329Z" fill="white"/>
<path d="M961.01 532.678H958.347V551.322H961.01V532.678Z" fill="white"/>
<path d="M969 540.668H950.356V543.332H969V540.668Z" fill="white"/>
<path d="M961.01 799.017H958.347V817.661H961.01V799.017Z" fill="white"/>
<path d="M969 807.007H950.356V809.671H969V807.007Z" fill="white"/>
<path d="M161.992 0H159.329V18.6437H161.992V0Z" fill="white"/>
<path d="M169.983 7.99023H151.339V10.6536H169.983V7.99023Z" fill="white"/>
<path d="M161.992 266.339H159.329V284.983H161.992V266.339Z" fill="white"/>
<path d="M169.983 274.329H151.339V276.992H169.983V274.329Z" fill="white"/>
<path d="M161.992 532.678H159.329V551.322H161.992V532.678Z" fill="white"/>
<path d="M169.983 540.668H151.339V543.332H169.983V540.668Z" fill="white"/>
<path d="M161.992 799.017H159.329V817.661H161.992V799.017Z" fill="white"/>
<path d="M169.983 807.007H151.339V809.671H169.983V807.007Z" fill="white"/>
<path d="M161.992 1065.36H159.329V1084H161.992V1065.36Z" fill="white"/>
<path d="M169.983 1073.35H151.339V1076.01H169.983V1073.35Z" fill="white"/>
<path d="M428.331 0H425.668V18.6437H428.331V0Z" fill="white"/>
<path d="M436.321 7.99023H417.678V10.6536H436.321V7.99023Z" fill="white"/>
<path d="M428.331 266.339H425.668V284.983H428.331V266.339Z" fill="white"/>
<path d="M436.321 274.329H417.678V276.992H436.321V274.329Z" fill="white"/>
<path d="M428.331 532.678H425.668V551.322H428.331V532.678Z" fill="white"/>
<path d="M436.321 540.668H417.678V543.332H436.321V540.668Z" fill="white"/>
<path d="M428.331 799.017H425.668V817.661H428.331V799.017Z" fill="white"/>
<path d="M436.321 807.007H417.678V809.671H436.321V807.007Z" fill="white"/>
<path d="M428.331 1065.36H425.668V1084H428.331V1065.36Z" fill="white"/>
<path d="M436.321 1073.35H417.678V1076.01H436.321V1073.35Z" fill="white"/>
<path d="M694.671 0H692.008V18.6437H694.671V0Z" fill="white"/>
<path d="M702.661 7.99018H684.018V10.6536H702.661V7.99018Z" fill="white"/>
<path d="M694.671 266.339H692.008V284.983H694.671V266.339Z" fill="white"/>
<path d="M702.661 274.329H684.018V276.993H702.661V274.329Z" fill="white"/>
<path d="M694.671 532.678H692.008V551.322H694.671V532.678Z" fill="white"/>
<path d="M702.661 540.668H684.018V543.332H702.661V540.668Z" fill="white"/>
<path d="M694.671 799.017H692.008V817.661H694.671V799.017Z" fill="white"/>
<path d="M702.661 807.007H684.018V809.671H702.661V807.007Z" fill="white"/>
<path d="M694.671 1065.36H692.008V1084H694.671V1065.36Z" fill="white"/>
<path d="M702.661 1073.35H684.018V1076.01H702.661V1073.35Z" fill="white"/>
<path d="M961.01 1065.36H958.347V1084H961.01V1065.36Z" fill="white"/>
<path d="M969 1073.35H950.356V1076.01H969V1073.35Z" fill="white"/>
<path d="M28.8226 141.16H26.1592V143.823H28.8226V141.16Z" fill="white"/>
<path d="M295.162 141.16H292.499V143.823H295.162V141.16Z" fill="white"/>
<path d="M561.501 141.16H558.838V143.823H561.501V141.16Z" fill="white"/>
<path d="M827.84 141.16H825.177V143.823H827.84V141.16Z" fill="white"/>
<path d="M28.8226 407.499H26.1592V410.162H28.8226V407.499Z" fill="white"/>
<path d="M295.162 407.499H292.499V410.162H295.162V407.499Z" fill="white"/>
<path d="M561.501 407.499H558.838V410.162H561.501V407.499Z" fill="white"/>
<path d="M827.84 407.499H825.177V410.162H827.84V407.499Z" fill="white"/>
<path d="M28.8226 673.838H26.1592V676.501H28.8226V673.838Z" fill="white"/>
<path d="M295.162 673.838H292.499V676.501H295.162V673.838Z" fill="white"/>
<path d="M561.501 673.838H558.838V676.501H561.501V673.838Z" fill="white"/>
<path d="M827.84 673.838H825.177V676.501H827.84V673.838Z" fill="white"/>
<path d="M28.8226 940.177H26.1592V942.84H28.8226V940.177Z" fill="white"/>
<path d="M295.162 940.177H292.499V942.84H295.162V940.177Z" fill="white"/>
<path d="M561.501 940.177H558.838V942.84H561.501V940.177Z" fill="white"/>
<path d="M827.84 940.177H825.177V942.84H827.84V940.177Z" fill="white"/>
</g>
<g opacity="0.1">
<path opacity="0.5" d="M960.654 9.32183H957.99V1074.68H960.654V9.32183Z" fill="white"/>
<path opacity="0.2" d="M1012.72 7.99018H1010.06V1076.01H1012.72V7.99018Z" fill="white"/>
<path opacity="0.2" d="M1066.12 7.99018H1063.46V1076.01H1066.12V7.99018Z" fill="white"/>
<path opacity="0.2" d="M1119.52 7.99018H1116.86V1076.01H1119.52V7.99018Z" fill="white"/>
<path opacity="0.2" d="M1172.93 7.99018H1170.26V1076.01H1172.93V7.99018Z" fill="white"/>
<path opacity="0.5" d="M1226.33 7.99018H1223.66V1076.01H1226.33V7.99018Z" fill="white"/>
<path opacity="0.2" d="M1279.73 7.99018H1277.06V1076.01H1279.73V7.99018Z" fill="white"/>
<path opacity="0.2" d="M1333.13 7.99018H1330.47V1076.01H1333.13V7.99018Z" fill="white"/>
<path opacity="0.2" d="M1386.53 7.99018H1383.87V1076.01H1386.53V7.99018Z" fill="white"/>
<path opacity="0.2" d="M1439.93 7.99018H1437.27V1076.01H1439.93V7.99018Z" fill="white"/>
<path opacity="0.5" d="M1493.33 7.99023H1490.67V1076.01H1493.33V7.99023Z" fill="white"/>
<path opacity="0.2" d="M1546.73 7.99018H1544.07V1076.01H1546.73V7.99018Z" fill="white"/>
<path opacity="0.2" d="M1600.13 7.99018H1597.47V1076.01H1600.13V7.99018Z" fill="white"/>
<path opacity="0.2" d="M1653.53 7.99018H1650.87V1076.01H1653.53V7.99018Z" fill="white"/>
<path opacity="0.2" d="M1706.94 7.99018H1704.27V1076.01H1706.94V7.99018Z" fill="white"/>
<path opacity="0.5" d="M1760.34 7.99023H1757.67V1076.01H1760.34V7.99023Z" fill="white"/>
<path opacity="0.2" d="M1813.74 7.99018H1811.07V1076.01H1813.74V7.99018Z" fill="white"/>
<path opacity="0.2" d="M1867.14 7.99018H1864.48V1076.01H1867.14V7.99018Z" fill="white"/>
<path opacity="0.2" d="M1920.54 7.99018H1917.88V1076.01H1920.54V7.99018Z" fill="white"/>
<path opacity="0.5" d="M2024.68 7.99018H959.322V10.6536H2024.68V7.99018Z" fill="white"/>
<path opacity="0.2" d="M2026.01 60.0596H957.99V62.723H2026.01V60.0596Z" fill="white"/>
<path opacity="0.2" d="M2026.01 113.461H957.99V116.124H2026.01V113.461Z" fill="white"/>
<path opacity="0.2" d="M2026.01 166.861H957.99V169.525H2026.01V166.861Z" fill="white"/>
<path opacity="0.2" d="M2026.01 220.262H957.99V222.926H2026.01V220.262Z" fill="white"/>
<path opacity="0.5" d="M2026.01 273.663H957.99V276.327H2026.01V273.663Z" fill="white"/>
<path opacity="0.2" d="M2026.01 327.065H957.99V329.728H2026.01V327.065Z" fill="white"/>
<path opacity="0.2" d="M2026.01 380.466H957.99V383.129H2026.01V380.466Z" fill="white"/>
<path opacity="0.2" d="M2026.01 433.866H957.99V436.529H2026.01V433.866Z" fill="white"/>
<path opacity="0.2" d="M2026.01 487.267H957.99V489.931H2026.01V487.267Z" fill="white"/>
<path opacity="0.5" d="M2026.01 540.668H957.99V543.332H2026.01V540.668Z" fill="white"/>
<path opacity="0.2" d="M2026.01 594.069H957.99V596.733H2026.01V594.069Z" fill="white"/>
<path opacity="0.2" d="M2026.01 647.471H957.99V650.134H2026.01V647.471Z" fill="white"/>
<path opacity="0.2" d="M2026.01 700.871H957.99V703.534H2026.01V700.871Z" fill="white"/>
<path opacity="0.2" d="M2026.01 754.272H957.99V756.935H2026.01V754.272Z" fill="white"/>
<path opacity="0.5" d="M2026.01 807.673H957.99V810.337H2026.01V807.673Z" fill="white"/>
<path opacity="0.2" d="M2026.01 861.074H957.99V863.738H2026.01V861.074Z" fill="white"/>
<path opacity="0.2" d="M2026.01 914.475H957.99V917.139H2026.01V914.475Z" fill="white"/>
<path opacity="0.2" d="M2026.01 967.876H957.99V970.539H2026.01V967.876Z" fill="white"/>
<path opacity="0.2" d="M2026.01 1021.28H957.99V1023.94H2026.01V1021.28Z" fill="white"/>
<path opacity="0.5" d="M2024.68 1073.35H959.322V1076.01H2024.68V1073.35Z" fill="white"/>
<path d="M960.654 0H957.99V18.6437H960.654V0Z" fill="white"/>
<path d="M968.644 7.99018H950V10.6536H968.644V7.99018Z" fill="white"/>
<path d="M960.654 266.339H957.99V284.983H960.654V266.339Z" fill="white"/>
<path d="M968.644 274.329H950V276.993H968.644V274.329Z" fill="white"/>
<path d="M960.654 532.678H957.99V551.322H960.654V532.678Z" fill="white"/>
<path d="M968.644 540.668H950V543.332H968.644V540.668Z" fill="white"/>
<path d="M960.654 799.017H957.99V817.661H960.654V799.017Z" fill="white"/>
<path d="M968.644 807.007H950V809.671H968.644V807.007Z" fill="white"/>
<path d="M960.654 1065.36H957.99V1084H960.654V1065.36Z" fill="white"/>
<path d="M968.644 1073.35H950V1076.01H968.644V1073.35Z" fill="white"/>
<path d="M1226.99 0H1224.33V18.6437H1226.99V0Z" fill="white"/>
<path d="M1234.98 7.99018H1216.34V10.6536H1234.98V7.99018Z" fill="white"/>
<path d="M1226.99 266.339H1224.33V284.983H1226.99V266.339Z" fill="white"/>
<path d="M1234.98 274.329H1216.34V276.993H1234.98V274.329Z" fill="white"/>
<path d="M1226.99 532.678H1224.33V551.322H1226.99V532.678Z" fill="white"/>
<path d="M1234.98 540.668H1216.34V543.332H1234.98V540.668Z" fill="white"/>
<path d="M1226.99 799.017H1224.33V817.661H1226.99V799.017Z" fill="white"/>
<path d="M1234.98 807.007H1216.34V809.671H1234.98V807.007Z" fill="white"/>
<path d="M1226.99 1065.36H1224.33V1084H1226.99V1065.36Z" fill="white"/>
<path d="M1234.98 1073.35H1216.34V1076.01H1234.98V1073.35Z" fill="white"/>
<path d="M1493.33 0H1490.67V18.6437H1493.33V0Z" fill="white"/>
<path d="M1501.32 7.99018H1482.68V10.6536H1501.32V7.99018Z" fill="white"/>
<path d="M1493.33 266.339H1490.67V284.983H1493.33V266.339Z" fill="white"/>
<path d="M1501.32 274.329H1482.68V276.993H1501.32V274.329Z" fill="white"/>
<path d="M1493.33 532.678H1490.67V551.322H1493.33V532.678Z" fill="white"/>
<path d="M1501.32 540.668H1482.68V543.332H1501.32V540.668Z" fill="white"/>
<path d="M1493.33 799.017H1490.67V817.661H1493.33V799.017Z" fill="white"/>
<path d="M1501.32 807.007H1482.68V809.671H1501.32V807.007Z" fill="white"/>
<path d="M1493.33 1065.36H1490.67V1084H1493.33V1065.36Z" fill="white"/>
<path d="M1501.32 1073.35H1482.68V1076.01H1501.32V1073.35Z" fill="white"/>
<path d="M1759.67 0H1757.01V18.6437H1759.67V0Z" fill="white"/>
<path d="M1767.66 7.99018H1749.02V10.6536H1767.66V7.99018Z" fill="white"/>
<path d="M1759.67 266.339H1757.01V284.983H1759.67V266.339Z" fill="white"/>
<path d="M1767.66 274.329H1749.02V276.993H1767.66V274.329Z" fill="white"/>
<path d="M1759.67 532.678H1757.01V551.322H1759.67V532.678Z" fill="white"/>
<path d="M1767.66 540.668H1749.02V543.332H1767.66V540.668Z" fill="white"/>
<path d="M1759.67 799.017H1757.01V817.661H1759.67V799.017Z" fill="white"/>
<path d="M1767.66 807.007H1749.02V809.671H1767.66V807.007Z" fill="white"/>
<path d="M1759.67 1065.36H1757.01V1084H1759.67V1065.36Z" fill="white"/>
<path d="M1767.66 1073.35H1749.02V1076.01H1767.66V1073.35Z" fill="white"/>
<path d="M1093.82 141.16H1091.16V143.823H1093.82V141.16Z" fill="white"/>
<path d="M1360.16 141.16H1357.5V143.823H1360.16V141.16Z" fill="white"/>
<path d="M1626.5 141.16H1623.84V143.823H1626.5V141.16Z" fill="white"/>
<path d="M1892.84 141.16H1890.18V143.823H1892.84V141.16Z" fill="white"/>
<path d="M1093.82 407.499H1091.16V410.162H1093.82V407.499Z" fill="white"/>
<path d="M1360.16 407.499H1357.5V410.162H1360.16V407.499Z" fill="white"/>
<path d="M1626.5 407.499H1623.84V410.162H1626.5V407.499Z" fill="white"/>
<path d="M1892.84 407.499H1890.18V410.162H1892.84V407.499Z" fill="white"/>
<path d="M1093.82 673.838H1091.16V676.501H1093.82V673.838Z" fill="white"/>
<path d="M1360.16 673.838H1357.5V676.501H1360.16V673.838Z" fill="white"/>
<path d="M1626.5 673.838H1623.84V676.501H1626.5V673.838Z" fill="white"/>
<path d="M1892.84 673.838H1890.18V676.501H1892.84V673.838Z" fill="white"/>
<path d="M1093.82 940.177H1091.16V942.84H1093.82V940.177Z" fill="white"/>
<path d="M1360.16 940.177H1357.5V942.84H1360.16V940.177Z" fill="white"/>
<path d="M1626.5 940.177H1623.84V942.84H1626.5V940.177Z" fill="white"/>
<path d="M1892.84 940.177H1890.18V942.84H1892.84V940.177Z" fill="white"/>
</g>
</svg>
